# xmcd
#
# Track frame offsets:
# 150
# 21999
# 35350
# 46806
# 67577
# 87081
# 106325
# 131500
# 151336
# 169629
# 191721
# 209438
#
# Disc length: 3100 seconds
#
# Revision: 1
# Processed by: cddbd v1.5PL3 Copyright (c) Steve Scherf et al.
# Submitted via: Easy CD Ripper v2.27
#
DISCID=930c1a0c
DTITLE=Eachdraidh - Culloden Field
DYEAR=1998
DGENRE=Ethnic
TTITLE0=Culloden Field - Eachdraidh
TTITLE1=O'Neill's Complaint - Eachdraidh
TTITLE2=Loretta - Eachdraidh
TTITLE3=Green Shady Place - Eachdraidh
TTITLE4=Jenny-O - Eachdraidh
TTITLE5=Will Ye Be Proud - Eachdraidh
TTITLE6=Annabelle Lee - Eachdraidh
TTITLE7=Cameron's Lament - Eachdraidh
TTITLE8=Jamie In The Tower - Eachdraidh
TTITLE9=The Impressman - Eachdraidh
TTITLE10=Seanachie - Eachdraidh
TTITLE11=Marsha Wallace - Eachdraidh
EXTD=
EXTT0=
EXTT1=
EXTT2=
EXTT3=
EXTT4=
EXTT5=
EXTT6=
EXTT7=
EXTT8=
EXTT9=
EXTT10=
EXTT11=
PLAYORDER=
